<?xml version="1.0" encoding="UTF-8"?>
<svg id="Ebene_1" data-name="Ebene 1" xmlns="http://www.w3.org/2000/svg" xmlns:xlink="http://www.w3.org/1999/xlink" viewBox="0 0 283.465 283.465">
  <defs>
    <style>
      .cls-1 {
        fill: url(#Unbenannter_Verlauf_25-3);
      }

      .cls-2 {
        fill: url(#Unbenannter_Verlauf_25-7);
      }

      .cls-3 {
        fill: url(#Unbenannter_Verlauf_25-11);
      }

      .cls-4 {
        fill: url(#Unbenannter_Verlauf_25-4);
      }

      .cls-5 {
        fill: url(#Unbenannter_Verlauf_25-13);
      }

      .cls-6 {
        fill: url(#Unbenannter_Verlauf_25-6);
      }

      .cls-7 {
        fill: url(#Unbenannter_Verlauf_25-2);
      }

      .cls-8 {
        fill: url(#Unbenannter_Verlauf_25-14);
      }

      .cls-9 {
        fill: url(#Unbenannter_Verlauf_25-5);
      }

      .cls-10 {
        fill: url(#Unbenannter_Verlauf_25-10);
      }

      .cls-11 {
        fill: url(#Unbenannter_Verlauf_25-9);
      }

      .cls-12 {
        fill: url(#Unbenannter_Verlauf_25-12);
      }

      .cls-13 {
        fill: #393b03;
      }

      .cls-14 {
        fill: url(#Unbenannter_Verlauf_11);
      }

      .cls-15 {
        fill: url(#Unbenannter_Verlauf_25-8);
      }

      .cls-16 {
        fill: url(#Unbenannter_Verlauf_25-15);
      }

      .cls-17 {
        fill: #244f17;
      }

      .cls-18 {
        fill: url(#Unbenannter_Verlauf_25);
      }

      .cls-19 {
        fill: #373b03;
      }
    </style>
    <linearGradient id="Unbenannter_Verlauf_11" data-name="Unbenannter Verlauf 11" x1="142.548" y1="262.919" x2="140.949" y2="26.662" gradientUnits="userSpaceOnUse">
      <stop offset=".029" stop-color="#613b03"/>
      <stop offset=".592" stop-color="#3a470f"/>
      <stop offset="1" stop-color="#244f17"/>
    </linearGradient>
    <linearGradient id="Unbenannter_Verlauf_25" data-name="Unbenannter Verlauf 25" x1="90.879" y1="88.726" x2="126.045" y2="88.726" gradientUnits="userSpaceOnUse">
      <stop offset=".029" stop-color="#3b8226"/>
      <stop offset="1" stop-color="#244f43"/>
    </linearGradient>
    <linearGradient id="Unbenannter_Verlauf_25-2" data-name="Unbenannter Verlauf 25" x1="157.38" y1="88.744" x2="192.395" y2="88.744" xlink:href="#Unbenannter_Verlauf_25"/>
    <linearGradient id="Unbenannter_Verlauf_25-3" data-name="Unbenannter Verlauf 25" x1="53.941" y1="115.838" x2="105.309" y2="115.838" xlink:href="#Unbenannter_Verlauf_25"/>
    <linearGradient id="Unbenannter_Verlauf_25-4" data-name="Unbenannter Verlauf 25" x1="177.682" y1="115.901" x2="229.424" y2="115.901" xlink:href="#Unbenannter_Verlauf_25"/>
    <linearGradient id="Unbenannter_Verlauf_25-5" data-name="Unbenannter Verlauf 25" x1="129.5" y1="69.574" x2="155.09" y2="78.665" xlink:href="#Unbenannter_Verlauf_25"/>
    <linearGradient id="Unbenannter_Verlauf_25-6" data-name="Unbenannter Verlauf 25" x1="48.058" y1="142.577" x2="84.244" y2="142.577" xlink:href="#Unbenannter_Verlauf_25"/>
    <linearGradient id="Unbenannter_Verlauf_25-7" data-name="Unbenannter Verlauf 25" x1="199.209" y1="142.513" x2="234.912" y2="142.513" xlink:href="#Unbenannter_Verlauf_25"/>
    <linearGradient id="Unbenannter_Verlauf_25-8" data-name="Unbenannter Verlauf 25" x1="70.047" y1="160.772" x2="93.403" y2="160.772" xlink:href="#Unbenannter_Verlauf_25"/>
    <linearGradient id="Unbenannter_Verlauf_25-9" data-name="Unbenannter Verlauf 25" x1="190.05" y1="160.766" x2="212.951" y2="160.766" xlink:href="#Unbenannter_Verlauf_25"/>
    <linearGradient id="Unbenannter_Verlauf_25-10" data-name="Unbenannter Verlauf 25" x1="67.755" y1="87.951" x2="87.909" y2="87.951" xlink:href="#Unbenannter_Verlauf_25"/>
    <linearGradient id="Unbenannter_Verlauf_25-11" data-name="Unbenannter Verlauf 25" x1="195.529" y1="87.873" x2="215.241" y2="87.873" xlink:href="#Unbenannter_Verlauf_25"/>
    <linearGradient id="Unbenannter_Verlauf_25-12" data-name="Unbenannter Verlauf 25" x1="112.364" y1="62.391" x2="124.11" y2="62.391" xlink:href="#Unbenannter_Verlauf_25"/>
    <linearGradient id="Unbenannter_Verlauf_25-13" data-name="Unbenannter Verlauf 25" x1="159.334" y1="62.392" x2="170.903" y2="62.392" xlink:href="#Unbenannter_Verlauf_25"/>
    <linearGradient id="Unbenannter_Verlauf_25-14" data-name="Unbenannter Verlauf 25" x1="43.022" y1="126.113" x2="64.003" y2="126.113" xlink:href="#Unbenannter_Verlauf_25"/>
    <linearGradient id="Unbenannter_Verlauf_25-15" data-name="Unbenannter Verlauf 25" x1="219.454" y1="126.07" x2="239.688" y2="126.07" xlink:href="#Unbenannter_Verlauf_25"/>
  </defs>
  <path class="cls-14" d="M132.701,19.701c100.748-6.596,166.758,103.964,111.404,189.269-50.324,77.553-167.075,72.098-210.482-9.389C-7.84,121.743,45.035,25.441,132.701,19.701ZM117.222,238.503v6.641c0,.525,1.414,3.002,1.829,3.667-.789.702-2.124-1.189-2.666-1.915-2.736-3.666-1.814-6.398-2.487-10.337-.956-5.591-5.257-10.383-4.467-16.378-7.958,5.481-.965,15.873-4.242,22.548-.275.559-1.424,2.757-2.165,2.181,1.73-5.03-.281-10.405-2.061-15.101l-5.455,5.529-2.098,4.994c-.005-2.757-.337-5.056.832-7.634,1.26-2.78,4.151-4.306,5.776-6.591,1.573-2.213,2.517-5.538,4.004-7.905,1.4-2.23,3.453-4.104,4.957-6.26-6.091.281-11.534,3.146-14.848,8.277-3.52,5.449-4.497,13.04-12.63,13.702l5.235-5.982,2.091-5.004c-3.524.706-7.821.839-11.197,1.852-1.839.552-2.958,1.784-4.154,2.261-1.706.68.486-2.325.926-2.741,3.274-3.098,9.012-2.921,13.013-5.308,3.042-1.814,4.939-4.975,7.598-7.059.979-.768,2.368-.922,2.973-1.83-5.706-.535-10.874-1.526-15.991,1.637-5.225,3.229-9.034,8.709-16.297,7.979-.629-.442.646-.827.9-.933,3.072-1.28,4.685-1.923,7.33-4.121.557-.463,4.909-4.534,4.363-5.022-8.329.84-16.217,5.371-23.812-.466-.099-.851.964-.38,1.466-.322,12.233,1.409,19.024-3.546,30.826-4.248,11.001-.654,34.766,2.237,39.029-11.812,4.7-15.489-12.53-17.719-20.037-26.425-6.662-7.727-9.298-18.348-9.625-28.39-.078-2.39-.112-4.696,2.541-2.541,3.238,2.63,3.631,10.619,5.179,14.516,2.154,5.423,10.014,12.811,16.114,12.966-.027-2.724-2.968-4.249-4.564-6.195-1.326-1.616-5.813-7.61-2.757-9.17,2.392-1.221,6.123,4.462,7.531,5.77,5.49,5.098,12.45,7.312,16.365,14.322,2.503,4.481,2.911,9.692,3.141,14.722.102,2.223-.669,25.489,1.589,25.444,1.214-.024,1.704-2.718,1.85-3.646.298-1.888.552-4.735.659-6.669.607-10.97-2.497-23.554,4.816-32.743,1.713-2.043,1.255-1.233,3.193-3.217,2.368-2.424,4.896-3.065,7.552-4.379,1.106-.547,6.274-7.169,8.251-8.673,1.134-.862,2.937-2.019,3.579.101,1.678,5.542-9.675,12.361-7.689,14.332,5.782-.112,12.895-6.987,15.359-11.889,1.936-3.849,2.112-8.478,3.63-12.401.95-2.454,1.826-4.016,4.825-3.649-.736,11.721-2.617,25-11.669,33.447-7.302,6.814-18.947,7.928-19.032,20.392-.134,19.513,33.751,14.653,45.532,16.295,8.965,1.249,17.085,6.518,26.389,3.613l-3.352,2.366c-6.811,2.717-13.658-1.138-20.463-1.45l5.277,5.482,7.545,4.588c-9.194,1-14.161-9.398-22.196-10.09-3.163-.272-6.73.058-9.861.479l4.126,2.967c2.217,1.981,3.606,4.617,6.249,6.118,5,2.838,11.796,1.585,14.811,7.632.203.649-3.913-1.623-4.577-1.836-3.546-1.137-7.781-1.191-11.449-2.058,1.011,4.675,3.912,7.925,7.326,10.985-9.786-.607-9.95-12.321-15.813-17.389-3.408-2.946-7.819-4.12-12.124-5.048l6.143,8.28c1.256,6.068,8.798,10.191,9.774,15.872.224,1.302.552,3.712-.8,4.244-.35-4.262-3.799-7.986-7.328-10.076-1.117,5.622-2.605,8.548-1.868,14.468.112.902-.098.664-.877.645-3.638-5.985-.57-12.372-1.49-18.897l-3.551-6.29c-.121,1.873-.243,4.17-.669,5.975-.772,3.27-3.018,6.259-3.716,9.109-1.235,5.04.38,11.117-5.234,14.228,1.481-3.543,2.179-6.878,1.83-10.762-.957-.921-1.037.689-1.802,1.396-4.735,4.373-13.922,11.287-17.444,16.002-.269.361-.925.79-.217,1.158,14.433-1.002,28.565-4.073,41.755-10.003,84.797-38.122,91.693-156.043,11.74-203.814C106.801-12.831-4.206,81.927,34.427,183.203c16.858,44.192,55.272,69.087,101.462,73.509.676.065,1.195.486,1.025-.569l-19.691-17.64ZM141.95,218.348c-3.102-4.184-6.14-8.62-11.782-9.506-6.876-1.079-13.744,4.125-14.336,11.09-1.191,14.009,18.572,24.204,25.896,34.135,7.003-9.819,26.007-19.766,25.782-33.2-.07-4.168-3.127-9.044-6.922-10.844-7.586-3.597-15.63,1.144-18.638,8.325Z"/>
  <path class="cls-17" d="M143.332,148.727c.85.2.889-.284,1.296-.76,4.277-5.002,2.607-7.724,4.891-12.972,3.652-8.391,13.6-9.653,21.752-9.625-1.469,9.12-5.288,19.109-15.808,20.148-5.156.509-5.552-1.769-8.233,3.675-3.247,6.593-1.352,10.068-2.621,15.7-.379,1.683-2.992,3.963-2.657,6.279l-3.465-6.394c.617-5.09-1.216-10.238-3.624-14.681-2.741-.759-5.82-.538-8.684-1.393-8.788-2.624-11.723-12.346-13.543-20.351,7.925.012,18.593,1.767,22.073,9.989,2.031,4.8.459,9.634,4.726,13.591l.706-1.584.364-13.685c-11.946-8.573-7.672-22.088.764-31.44,6.337,7.647,12.549,18.132,5.457,27.434-.812,1.065-3.502,3.158-3.76,4.027-.904,3.05,1.129,8.619.367,12.041Z"/>
  <path class="cls-18" d="M124.545,110.254c-.551.43-4.509-8.23-4.954-9.009-1.504-2.626-3.397-5.668-5.194-8.089-1.069-1.44-7.378-9.005-8.402-9.463-.2-.09-.751-.117-.679.223,6.431,8.775,11.677,18.569,14.652,29.085-8.532-2.303-17.09-6.255-22.363-13.587-7.252-10.084-7.791-23.13-5.57-34.964,10.168,2.829,22.644,8.262,28.767,17.263,5.743,8.444,6.404,18.859,3.744,28.54Z"/>
  <path class="cls-7" d="M163.487,113.003c2.571-10.579,8.409-20.477,14.652-29.309-.536-.492-4.486,3.72-5.05,4.335-6.064,6.605-9.8,14.395-13.96,22.224-2.137-6.566-2.387-14.33-.356-20.967,4.307-14.075,19.136-20.526,31.969-24.802,1.774.166,1.734,14.27,1.59,16.223-1.294,17.494-12.452,28.039-28.845,32.297Z"/>
  <path class="cls-1" d="M105.309,123.538c-9.219-4.756-18.721-9.788-29.307-10.53l16.337,7.703c2.72,1.725,5.642,3.134,8.267,5.013.562.403,2.583,1.527,2.42,2.16-19.625,8.346-37.167-1.069-46.8-18.695-.493-.901-2.748-4.681-2.2-5.331,4.289-.796,8.771-2.18,13.096-2.709,6.537-.8,13.134-.619,19.394,1.568,8.989,3.141,16.387,11.676,18.793,20.821Z"/>
  <path class="cls-4" d="M179.972,128.114c7.864-6.568,17.793-11.28,27.478-14.658-.118-.916-2.262-.425-2.857-.334-5.626.854-12.71,3.545-17.915,5.902-3.052,1.382-5.9,3.242-8.997,4.51,2.615-6.562,5.988-12.618,11.757-16.865,8.765-6.452,19.571-6.527,29.934-4.898,1.478.232,9.836,1.821,10.051,2.789-6.014,12.841-17.056,25.599-32.254,26.328-6.045.29-11.442-1.467-17.198-2.774Z"/>
  <path class="cls-9" d="M143.79,98.805l-1.829-18.097-.009-11.217c-.917.176-.75.968-.91,1.604-2.219,8.81-1.761,18.684-1.836,27.707-.44.524-2.633-1.893-2.98-2.282-14.561-16.344-7.513-34.183,5.502-48.547,11.928,13.545,19.723,30.299,7.087,46.468-.601.769-4.119,5.333-5.024,4.364Z"/>
  <path class="cls-6" d="M84.244,139.107c-6.698.188-13.47,1.143-19.692,3.675-.094.861.959.369,1.463.319,6.127-.605,12.026-1.814,18.229-.779-8.563,12.954-24.56,11.188-36.186,3.421,9.005-11.381,24.034-17.701,36.186-6.636Z"/>
  <path class="cls-2" d="M199.209,142.322c6.581-.774,13.138.116,19.693.907.107-.659-.772-.6-1.257-.792-5.79-2.296-12.22-3.162-18.434-3.33l6.876-4.338c10.933-4.836,22.259,2.398,28.825,10.932-10.907,8.152-27.629,9.206-35.703-3.378Z"/>
  <path class="cls-15" d="M91.572,151.024c-1.547,1.756-3.76,2.819-5.502,4.341-.779.681-5.277,5.037-5.487,5.508-.09.2-.117.751.223.679.996-1.378,11.926-8.906,12.596-8.239-1.238,12.707-11.808,17.257-23.356,17.399,1.798-11.518,8.598-21.395,21.526-19.687Z"/>
  <path class="cls-11" d="M212.951,170.715c-11.066-.148-22.063-5.038-22.9-17.402.563-.59,11.691,6.842,12.596,8.24l.223-.679-10.989-9.849c12.554-1.789,19.992,8.322,21.071,19.69Z"/>
  <path class="cls-10" d="M87.904,94.683c-2.864-2.165-7.079-6.907-10.309-8.239-.209-.086-.75-.12-.677.222,3.55,2.728,6.567,5.983,9.149,9.621.015,1.048-4.306.179-5.053.023-9.039-1.897-11.453-9.058-13.259-17.195,9.912-.222,20.425,4.22,20.148,15.568Z"/>
  <path class="cls-3" d="M215.241,79.11c-.494,9.798-7.216,18.702-17.864,17.4,1.992-3.496,5.02-6.107,7.935-8.779.352-.322,1.34-.719.542-1.29l-10.304,8.241c-.54-11.09,10.06-15.681,19.692-15.573Z"/>
  <path class="cls-12" d="M122.256,73.157c-9.66-2.763-12.065-13.103-8.001-21.53,5.309,2.728,10.121,8.058,9.843,14.41-.109,2.48-1.403,4.731-1.843,7.121Z"/>
  <path class="cls-5" d="M169.432,51.629c3.227,8.782,1.431,18.425-8.232,21.526-4.555-8.832-.367-17.675,8.232-21.526Z"/>
  <path class="cls-8" d="M43.022,124.462c7.104-4.569,16.235-4.989,20.981,2.977-6.63,6.197-15.865,3.817-20.981-2.977Z"/>
  <path class="cls-16" d="M227.486,121.357c3.357-.57,8.426.321,11.266,2.255,2.519,1.715-.649,3.492-2.487,4.693-5.621,3.673-11.705,3.655-16.812-.866,1.4-2.638,5.084-5.581,8.032-6.082Z"/>
  <path class="cls-13" d="M110.347,155.6c-4.682-4.098-6.489-9.454-6.673-15.579-.054-1.796.911-1.703,2.127-.711,2.227,1.817,2.171,8.408,2.854,11.344.4,1.722,1.256,3.251,1.691,4.946Z"/>
  <path class="cls-19" d="M179.512,138.652c.151,6.019-1.327,11.931-5.948,16.032,1.488-2.846,1.61-14.575,4.117-15.802.593-.29,1.199-.267,1.831-.23Z"/>
</svg>