<?xml version="1.0" encoding="UTF-8"?>
<svg id="Ebene_1" data-name="Ebene 1" xmlns="http://www.w3.org/2000/svg" xmlns:xlink="http://www.w3.org/1999/xlink" viewBox="0 0 283.465 283.465">
  <defs>
    <style>
      .cls-1 {
        fill: url(#Unbenannter_Verlauf_25-3);
      }

      .cls-2 {
        fill: url(#Unbenannter_Verlauf_25-7);
      }

      .cls-3 {
        fill: url(#Unbenannter_Verlauf_25-11);
      }

      .cls-4 {
        fill: url(#Unbenannter_Verlauf_25-4);
      }

      .cls-5 {
        fill: url(#Unbenannter_Verlauf_25-13);
      }

      .cls-6 {
        fill: url(#Unbenannter_Verlauf_25-6);
      }

      .cls-7 {
        fill: url(#Unbenannter_Verlauf_25-2);
      }

      .cls-8 {
        fill: url(#Unbenannter_Verlauf_25-14);
      }

      .cls-9 {
        fill: url(#Unbenannter_Verlauf_25-5);
      }

      .cls-10 {
        fill: url(#Unbenannter_Verlauf_25-10);
      }

      .cls-11 {
        fill: url(#Unbenannter_Verlauf_25-9);
      }

      .cls-12 {
        fill: url(#Unbenannter_Verlauf_25-12);
      }

      .cls-13 {
        fill: #393b03;
      }

      .cls-14 {
        fill: url(#Unbenannter_Verlauf_11);
      }

      .cls-15 {
        fill: url(#Unbenannter_Verlauf_25-8);
      }

      .cls-16 {
        fill: url(#Unbenannter_Verlauf_25-15);
      }

      .cls-17 {
        fill: #244f17;
      }

      .cls-18 {
        fill: url(#Unbenannter_Verlauf_25);
      }

      .cls-19 {
        fill: #373b03;
      }
    </style>
    <linearGradient id="Unbenannter_Verlauf_11" data-name="Unbenannter Verlauf 11" x1="140.471" y1="181.033" x2="139.599" y2="52.173" gradientUnits="userSpaceOnUse">
      <stop offset=".029" stop-color="#613b03"/>
      <stop offset=".592" stop-color="#3a470f"/>
      <stop offset="1" stop-color="#244f17"/>
    </linearGradient>
    <linearGradient id="Unbenannter_Verlauf_25" data-name="Unbenannter Verlauf 25" x1="112.289" y1="86.024" x2="131.47" y2="86.024" gradientUnits="userSpaceOnUse">
      <stop offset=".029" stop-color="#3b8226"/>
      <stop offset="1" stop-color="#244f43"/>
    </linearGradient>
    <linearGradient id="Unbenannter_Verlauf_25-2" data-name="Unbenannter Verlauf 25" x1="148.561" y1="86.034" x2="167.658" y2="86.034" xlink:href="#Unbenannter_Verlauf_25"/>
    <linearGradient id="Unbenannter_Verlauf_25-3" data-name="Unbenannter Verlauf 25" x1="92.143" y1="100.812" x2="120.16" y2="100.812" xlink:href="#Unbenannter_Verlauf_25"/>
    <linearGradient id="Unbenannter_Verlauf_25-4" data-name="Unbenannter Verlauf 25" x1="159.634" y1="100.846" x2="187.855" y2="100.846" xlink:href="#Unbenannter_Verlauf_25"/>
    <linearGradient id="Unbenannter_Verlauf_25-5" data-name="Unbenannter Verlauf 25" x1="133.354" y1="75.578" x2="147.311" y2="80.537" xlink:href="#Unbenannter_Verlauf_25"/>
    <linearGradient id="Unbenannter_Verlauf_25-6" data-name="Unbenannter Verlauf 25" x1="88.934" y1="115.396" x2="108.671" y2="115.396" xlink:href="#Unbenannter_Verlauf_25"/>
    <linearGradient id="Unbenannter_Verlauf_25-7" data-name="Unbenannter Verlauf 25" x1="171.375" y1="115.361" x2="190.848" y2="115.361" xlink:href="#Unbenannter_Verlauf_25"/>
    <linearGradient id="Unbenannter_Verlauf_25-8" data-name="Unbenannter Verlauf 25" x1="100.927" y1="125.32" x2="113.666" y2="125.32" xlink:href="#Unbenannter_Verlauf_25"/>
    <linearGradient id="Unbenannter_Verlauf_25-9" data-name="Unbenannter Verlauf 25" x1="166.38" y1="125.317" x2="178.87" y2="125.317" xlink:href="#Unbenannter_Verlauf_25"/>
    <linearGradient id="Unbenannter_Verlauf_25-10" data-name="Unbenannter Verlauf 25" x1="99.677" y1="85.602" x2="110.67" y2="85.602" xlink:href="#Unbenannter_Verlauf_25"/>
    <linearGradient id="Unbenannter_Verlauf_25-11" data-name="Unbenannter Verlauf 25" x1="169.368" y1="85.559" x2="180.119" y2="85.559" xlink:href="#Unbenannter_Verlauf_25"/>
    <linearGradient id="Unbenannter_Verlauf_25-12" data-name="Unbenannter Verlauf 25" x1="124.008" y1="71.661" x2="130.414" y2="71.661" xlink:href="#Unbenannter_Verlauf_25"/>
    <linearGradient id="Unbenannter_Verlauf_25-13" data-name="Unbenannter Verlauf 25" x1="149.627" y1="71.661" x2="155.936" y2="71.661" xlink:href="#Unbenannter_Verlauf_25"/>
    <linearGradient id="Unbenannter_Verlauf_25-14" data-name="Unbenannter Verlauf 25" x1="86.187" y1="106.416" x2="97.631" y2="106.416" xlink:href="#Unbenannter_Verlauf_25"/>
    <linearGradient id="Unbenannter_Verlauf_25-15" data-name="Unbenannter Verlauf 25" x1="182.417" y1="106.393" x2="193.453" y2="106.393" xlink:href="#Unbenannter_Verlauf_25"/>
  </defs>
  <path class="cls-14" d="M135.1,48.377c54.95-3.598,90.954,56.704,60.762,103.231-27.448,42.299-91.126,39.324-114.802-5.121-22.615-42.454,6.225-94.979,54.039-98.11ZM126.658,167.716v3.622c0,.287.771,1.637.998,2-.431.383-1.159-.649-1.454-1.044-1.492-2-.989-3.489-1.357-5.638-.521-3.05-2.867-5.663-2.436-8.933-4.34,2.99-.526,8.657-2.314,12.298-.15.305-.777,1.504-1.181,1.19.943-2.743-.153-5.675-1.124-8.237l-2.975,3.016-1.144,2.724c-.003-1.503-.184-2.758.454-4.164.687-1.516,2.264-2.348,3.15-3.595.858-1.207,1.373-3.02,2.184-4.312.764-1.216,1.883-2.238,2.704-3.414-3.322.153-6.291,1.716-8.099,4.515-1.92,2.972-2.453,7.112-6.889,7.473l2.855-3.263,1.14-2.729c-1.922.385-4.266.458-6.107,1.01-1.003.301-1.614.973-2.266,1.233-.93.371.265-1.268.505-1.495,1.786-1.69,4.915-1.593,7.098-2.895,1.659-.989,2.694-2.714,4.144-3.85.534-.419,1.292-.503,1.622-.998-3.112-.292-5.931-.832-8.722.893-2.85,1.761-4.927,4.75-8.888,4.352-.343-.241.353-.451.491-.509,1.676-.698,2.555-1.049,3.998-2.248.304-.253,2.677-2.473,2.379-2.739-4.543.458-8.845,2.93-12.987-.254-.054-.464.526-.207.799-.176,6.672.768,10.376-1.934,16.813-2.317,6-.357,18.962,1.22,21.287-6.443,2.563-8.448-6.834-9.664-10.929-14.413-3.634-4.214-5.071-10.007-5.25-15.485-.043-1.304-.061-2.561,1.386-1.386,1.766,1.435,1.98,5.792,2.825,7.917,1.175,2.958,5.462,6.988,8.789,7.072-.015-1.486-1.619-2.317-2.489-3.379-.723-.881-3.17-4.151-1.504-5.001,1.304-.666,3.34,2.434,4.108,3.147,2.995,2.781,6.791,3.988,8.926,7.812,1.365,2.444,1.588,5.286,1.713,8.03.055,1.213-.365,13.902.867,13.878.662-.013.929-1.482,1.009-1.989.163-1.03.301-2.582.36-3.637.331-5.983-1.362-12.847,2.627-17.858.934-1.114.685-.673,1.742-1.755,1.291-1.322,2.67-1.672,4.119-2.389.603-.299,3.422-3.91,4.5-4.73.618-.47,1.602-1.101,1.952.055.915,3.023-5.277,6.742-4.194,7.817,3.153-.061,7.033-3.811,8.377-6.484,1.056-2.099,1.152-4.624,1.98-6.764.518-1.339.996-2.19,2.632-1.99-.401,6.393-1.428,13.636-6.364,18.243-3.983,3.717-10.334,4.324-10.381,11.122-.073,10.643,18.408,7.992,24.834,8.887,4.89.681,9.319,3.555,14.393,1.971l-1.828,1.291c-3.715,1.482-7.449-.62-11.161-.791l2.878,2.99,4.115,2.502c-5.014.545-7.724-5.126-12.106-5.503-1.725-.149-3.671.031-5.379.261l2.25,1.618c1.209,1.08,1.967,2.518,3.408,3.337,2.727,1.548,6.434.864,8.078,4.163.111.354-2.135-.885-2.496-1.001-1.934-.62-4.244-.649-6.245-1.122.552,2.55,2.134,4.323,3.996,5.992-5.337-.331-5.427-6.72-8.625-9.484-1.859-1.607-4.265-2.247-6.613-2.753l3.351,4.516c.685,3.31,4.799,5.559,5.331,8.657.122.71.301,2.025-.437,2.315-.191-2.325-2.072-4.356-3.997-5.496-.609,3.067-1.421,4.662-1.019,7.891.061.492-.053.362-.478.352-1.984-3.264-.311-6.748-.813-10.307l-1.937-3.431c-.066,1.022-.132,2.274-.365,3.259-.421,1.783-1.646,3.414-2.027,4.968-.674,2.749.207,6.064-2.855,7.76.808-1.933,1.189-3.751.998-5.87-.522-.502-.565.376-.983.761-2.583,2.385-7.594,6.156-9.514,8.728-.147.197-.504.431-.118.631,7.872-.547,15.58-2.221,22.774-5.456,46.25-20.793,50.011-85.109,6.403-111.165-50.978-30.459-111.524,21.224-90.452,76.463,9.194,24.103,30.147,37.681,55.339,40.093.369.035.652.265.559-.311l-10.74-9.621ZM140.145,156.723c-1.692-2.282-3.349-4.701-6.426-5.185-3.75-.589-7.496,2.25-7.819,6.049-.649,7.641,10.129,13.202,14.124,18.618,3.82-5.356,14.185-10.781,14.062-18.108-.038-2.273-1.705-4.933-3.775-5.914-4.138-1.962-8.525.624-10.165,4.541Z"/>
  <path class="cls-17" d="M17.984,203.689l4.492-15.621c1.602-3.713,5.495-3.452,6.933.328,1.868,4.912,2.622,10.654,4.693,15.542l4.73-16.751c.777-1.8,3.507-2.251,4.75-.723.955,1.173.574,1.962.259,3.234-1.663,6.709-4.534,13.459-6.296,20.184-.686,2.79-5.065,3.003-6.481.841l-5.33-16.775-4.702,16.159c-.724,2.042-3.271,2.464-5.091,1.749-1.243-.488-1.483-1.41-1.957-2.54-2.676-6.389-4.032-14.234-6.436-20.813-.336-3.279,4.015-4.061,5.494-1.228,1.857,4.925,2.559,10.957,4.462,15.773.103.26.09.603.48.641Z"/>
  <path class="cls-17" d="M144.145,218.554c-.436,2.02-4.887,2.719-5.436-.56.413-7.43-.755-15.869-.069-23.183.122-1.297.585-2.418,1.99-2.755,2.373-.57,3.164.892,3.64,2.892,2.322-3.876,8.224-3.884,11.486-1.246,4.772,3.86,4.735,14.55-.948,17.526-3.368,1.764-8.285,1.368-10.662-1.794v9.118ZM149.062,196.287c-5.781-.058-6.415,9.478-2.056,11.162,7.777,3.004,8.744-11.095,2.056-11.162Z"/>
  <path class="cls-17" d="M175.371,209.684c-.658-.159-.526.483-.983.886-3.346,2.951-11.843,2.26-12.695-3.068-1.177-7.359,7.95-9.224,13.177-6.81.669-4.479-3.008-5.428-6.631-4.26-1.404.453-4.133,2.588-5.169.201-.843-1.943,1.102-3.082,2.639-3.73,4.839-2.039,13.992-1.439,14.656,5.169.291,2.893.3,8.493.16,11.448-.175,3.694-5.014,3.416-5.155.165ZM175.124,203.692c-2.301-.584-7.922-1.488-8.009,2.132-.092,3.869,6.63,3.279,7.647-.123.187-.627.128-1.375.362-2.009Z"/>
  <path class="cls-17" d="M110.419,203.44c.675,3.869,4.092,5.388,7.698,4.326,1.572-.463,4.466-3.053,5.403-.317,1.056,3.08-3.723,4.521-5.986,4.731-7.289.677-13.074-3.033-12.62-10.873.71-12.251,18.866-12.738,19.719-.704.061.857-.266,2.837-1.35,2.837h-12.866ZM119.413,200.192c-.537-5.618-8.41-5.663-8.744,0h8.744Z"/>
  <path class="cls-17" d="M244.821,203.44c.399,5.003,5.239,5.294,9.088,3.717,1.226-.502,2.339-1.92,3.62-.063,2.043,2.961-3.358,4.871-5.591,5.088-8.165.791-13.454-3.373-12.611-11.862,1.13-11.378,19.335-11.252,19.49.509.01.778-.447,2.611-1.381,2.611h-12.616ZM244.821,200.192h8.369c.85,0-.435-2.596-.767-2.98-2.426-2.801-7.639-.783-7.602,2.98Z"/>
  <path class="cls-17" d="M59.96,209.186c-2.797,4.794-11.144,4.009-12.819-1.549-.682-2.262-.728-11.032-.43-13.571.319-2.718,5.111-3.083,5.507.249.339,2.852-.268,6.338-.015,9.258.529,6.112,7.915,4.925,8.024-.76.034-1.747-.345-4.049-.294-5.744.021-.701.297-3.524.55-3.968,1.223-2.147,4.935-1.423,5.228,1.711.241,2.577.368,13.479-.181,15.576-.571,2.181-3.91,2.35-4.839.686-.398-.713.007-1.581-.731-1.888Z"/>
  <path class="cls-17" d="M222.09,195.194l1.494-1.625c3.471-2.97,10.111-2.034,11.617,2.628.636,1.97.656,11.537.383,13.868-.332,2.83-5.2,2.892-5.513-.493-.284-3.072.743-9.086-.686-11.555-1.361-2.353-5.014-1.918-6.349.25-1.463,2.377-.357,8.291-.698,11.293-.391,3.438-5.596,3.791-5.693-.75-.079-3.692-.015-7.724.042-11.448.018-1.147.024-3.768.65-4.544,1.714-2.127,5.148-.334,4.754,2.377Z"/>
  <path class="cls-17" d="M91.933,207.437h8.869c2.179,0,2.863,3.601.543,4.29-1.426.424-13.365.427-14.861.034-1.919-.503-2.171-2.55-1.159-4.063l9.854-10.883c.31-.75-1.817-.123-2.111-.111-1.547.061-3.767.138-5.266,0-3.441-.319-3.562-4.221-.253-4.52,2.728-.246,10.43-.362,12.987.029,2.068.317,2.377,2.342,1.498,3.964l-10.101,11.259Z"/>
  <path class="cls-17" d="M208.348,192.198c2.231-.127,5.928-.351,4.884,3.012-.598,1.927-3.008,1.022-4.474,1.27-.324.084-.357.305-.41.589-.253,1.369-.16,6.713-.012,8.257.103,1.077.356,1.969,1.495,2.252,1.469.364,3.453-.971,3.962,1.286.565,2.505-1.543,3.186-3.561,3.328-10.142.716-6.788-8.737-7.414-15.338l-.374-.376c-2.216.364-3.573-1.069-2.65-3.219.69-1.607,2.625-.569,2.945-1.051.477-2.197-.935-5.556,2.26-5.984,1.049-.14,3.35.321,3.35,1.6v4.372Z"/>
  <path class="cls-17" d="M130.337,183.763c1.806-.367,3.344.401,3.571,2.309.877,7.35-.655,16.437-.022,23.972-.453,2.958-5.281,2.78-5.486-.228.617-7.453-.806-16.192.005-23.49.138-1.246.608-2.295,1.931-2.564Z"/>
  <path class="cls-17" d="M189.535,192.525c.798.739.907,2.397.829,3.419l1.742-2.626c1.813-1.88,6.458-2.253,6.259,1.244-.186,3.263-3.07,2.219-4.938,2.824-4.453,1.444-2.129,9.603-2.868,12.871-.557,2.462-5.047,2.479-5.429.038l-.237-14.946c.318-1.22-.039-2.293,1.243-3.005.97-.539,2.563-.593,3.399.181Z"/>
  <path class="cls-17" d="M75.697,195.694l2.122-2.746c2.347-1.655,6.493-1.807,5.855,2.109-.396,2.426-2.691,1.653-4.369,2.125-5.384,1.515-2.412,9.56-3.526,13.212-.631,2.069-3.843,2.342-4.952.785-.851-1.195-.334-6.356-.368-8.124-.046-2.427-.511-5.891-.234-8.206.549-4.579,6.028-3.491,5.471.845Z"/>
  <path class="cls-17" d="M267.807,195.944l1.737-2.631c1.294-1.139,2.887-1.626,4.616-1.35,2.081.332,2.34,3.664.73,4.696-1.196.766-2.575.157-4.018.73-4.441,1.763-2.157,9.294-2.876,12.862-.524,2.6-5.055,2.396-5.424.043-.753-4.807.52-11.452,0-16.459,1.479-3.656,6.154-1.743,5.235,2.108Z"/>
  <path class="cls-17" d="M144.395,233.168h7.495v1.749h-9.868c-.48,0-.493-1.485-.089-1.839l7.209-9.652h-6.995v-1.749h9.368c.458,0,.48,1.261.084,1.585l-7.204,9.906Z"/>
  <path class="cls-17" d="M74.696,229.92v4.996l-1.59-.035-.409-.589.25-12.616h6.37c.351,0,1.906.943,2.224,1.274,1.311,1.367,1.418,4.178.152,5.599-.394.442-2.097,1.371-2.626,1.371h-4.372ZM74.696,223.55v4.497c1.132.78,4.534.465,5.365-.63.901-1.187.626-3.405-.855-3.88-.682-.219-3.477-.517-4.096-.321l-.414.335Z"/>
  <path class="cls-17" d="M166.878,229.421c1.21-.645,3.736-4.272,4.871-4.273.382,0,1.153.295,1.027.788l-3.395,3.359c.609.729,4.076,4.592,3.956,5.21-.059.303-.496.625-.825.645-1.493.089-3.35-3.397-4.262-4.485-2.16.562-.925,3.063-1.492,4.002-.468.775-1.877.248-1.877-.126v-12.99c0-.124.627-.652.888-.637.319-.132,1.111.454,1.111.637v7.869Z"/>
  <path class="cls-17" d="M128.408,230.421c-.125,1.13.672,2.469,1.689,2.929,2.073.938,3.916-1.2,4.8-.814,1.274,1.461-1.304,2.497-2.621,2.626-3.963.389-6.383-2.451-5.846-6.344.579-4.195,7.092-5.039,8.774-1.574.354.729.854,2.859-.052,3.302-1.044.511-5.387.014-6.745-.125ZM133.652,229.171c-.059-3.492-4.852-3.297-5.246,0h5.246Z"/>
  <path class="cls-17" d="M102.173,233.918c-1.899,2.226-6.857,1.576-6.728-1.852.12-3.19,4.418-3.403,6.729-2.645.081-2.112-.752-2.936-2.87-2.749-.887.078-3.015,1.489-3.141.123-.152-1.653,3.811-1.745,4.888-1.62,1.986.23,2.931,1.736,3.12,3.625.093.925.138,5.548-.246,6.003-.781.544-1.876.154-1.753-.885ZM102.145,230.7c-1.337-.663-5.343-.485-4.672,1.788s5.547,1.053,4.672-1.788Z"/>
  <path class="cls-17" d="M186.114,225.424l1.714.036.159,1.212c.879-1.92,4.564-2.063,5.837-.589.3.347,1.034,2.109,1.034,2.464v5.996c-.484.584-1.551.56-1.999,0v-5.746c0-1.245-1.299-2.26-2.557-2.074-3.649.537-1.526,5.723-2.229,7.779-.278.813-1.335.528-1.958.416v-9.493Z"/>
  <path class="cls-17" d="M162.132,234.917c-1.104.461-1.806-.074-1.872-1.248-1.216,1.692-3.882,2.06-5.503.754-.264-.213-1.118-1.43-1.118-1.63v-7.37c4.116-1.116.225,5.322,2.617,7.501,1.399,1.275,4.129-.128,4.129-1.631v-5.746c0-.511,1.749-.511,1.749,0v9.368Z"/>
  <path class="cls-17" d="M183.366,234.917l-1.502-.112-.37-1.136c-1.091,1.737-4.009,2.037-5.502.753-.26-.223-1.119-1.632-1.119-1.879v-6.995c0-.472,1.707-.668,1.964.305.105.399-.257,1.93-.227,2.705.032.831.142,2.459.274,3.223.372,2.151,3.194,2.259,4.201.48.1-.176.532-1.374.532-1.466v-5.246c0-.511,1.749-.511,1.749,0v9.368Z"/>
  <path class="cls-17" d="M106.672,225.548l.405-.355c1.267-.392,1.354,1.281,1.467,1.228,1.363-1.612,4.336-1.861,5.755-.257.17.192.866,1.276.866,1.382v7.37h-1.749v-5.871c0-.314-.564-1.602-.868-1.88-.955-.873-2.773-.494-3.499.511-.229.317-.629,2.04-.629,2.368v4.871h-1.749v-9.368Z"/>
  <path class="cls-17" d="M119.663,233.418h5.746v1.499h-7.869c-.423,0-.536-1.308-.143-1.644l5.264-6.35h-4.871c-.139,0-.638-.807-.587-1.089.223-1.235,4.58-.504,5.583-.458.596.027,2.057-.684,2.342.474.282,1.146-4.868,6.12-5.464,7.569Z"/>
  <path class="cls-17" d="M198.105,227.047l-1.577-.353-.31-1.017c.437-.66,1.185-.517,1.889-.502-.009-1.175-.203-2.732.762-3.61,1.106-1.007,4.589-1.301,3.947.7-.234.73-1.527-.279-2.363.386-.48.382-.608,1.904-.6,2.522l2.265.109.235,1.641h-2.499s0,7.993,0,7.993h-1.749v-7.869Z"/>
  <path class="cls-17" d="M85.438,226.922l-1.713-.285v-1.178s1.712-.287,1.712-.287c-.261-2.761.654-4.517,3.638-4.259,1.242.107,1.736.782.75,1.679-2.281-.731-2.463.497-2.659,2.421l2.497.431v1.457s-2.477.021-2.477.021v7.994h-1.749v-7.994Z"/>
  <path class="cls-17" d="M206.848,225.175c1.366.008,3.576-.372,2.515,1.639l-2.515.107c.196,1.59-.437,5.073.473,6.347.473.662,2.47-.603,2.757.304.611,1.929-4.605,2.696-4.983-.523-.219-1.861.205-4.064-.029-5.966-.206-.628-1.176-.377-1.715-.41l.235-1.39,1.517-.107c-.649-4.18,2.394-4.18,1.746,0Z"/>
  <path class="cls-17" d="M91.433,221.551c.058-.205.609-.617.888-.637.319-.132,1.111.454,1.111.637v12.99c0,.842-1.999.574-1.999,0v-12.99Z"/>
  <path class="cls-17" d="M140.898,118.75c.464.109.485-.155.707-.415,2.333-2.728,1.422-4.213,2.668-7.075,1.992-4.577,7.417-5.265,11.864-5.25-.801,4.974-2.884,10.423-8.622,10.989-2.812.278-3.028-.965-4.491,2.005-1.771,3.596-.737,5.491-1.43,8.563-.207.918-1.632,2.162-1.449,3.425l-1.89-3.487c.336-2.776-.663-5.584-1.977-8.007-1.495-.414-3.175-.293-4.736-.76-4.793-1.431-6.394-6.734-7.387-11.1,4.322.007,10.141.964,12.039,5.448,1.108,2.618.25,5.254,2.578,7.413l.385-.864.199-7.464c-6.515-4.676-4.184-12.047.417-17.148,3.457,4.171,6.845,9.889,2.976,14.963-.443.581-1.91,1.722-2.051,2.196-.493,1.664.616,4.701.2,6.568Z"/>
  <path class="cls-18" d="M130.652,97.766c-.301.235-2.459-4.489-2.702-4.914-.82-1.433-1.853-3.091-2.833-4.412-.583-.785-4.024-4.911-4.583-5.161-.109-.049-.41-.064-.37.122,3.507,4.786,6.369,10.128,7.991,15.864-4.653-1.256-9.321-3.411-12.197-7.411-3.955-5.5-4.25-12.616-3.038-19.07,5.546,1.543,12.351,4.506,15.69,9.416,3.132,4.605,3.493,10.286,2.042,15.567Z"/>
  <path class="cls-7" d="M151.892,99.266c1.402-5.77,4.587-11.169,7.992-15.986-.292-.268-2.447,2.029-2.755,2.364-3.308,3.603-5.345,7.851-7.614,12.122-1.165-3.581-1.302-7.816-.194-11.436,2.349-7.677,10.437-11.195,17.437-13.528.967.09.946,7.783.867,8.848-.706,9.542-6.792,15.293-15.733,17.615Z"/>
  <path class="cls-1" d="M120.16,105.012c-5.028-2.594-10.211-5.339-15.985-5.743l8.91,4.201c1.484.941,3.077,1.709,4.509,2.734.307.22,1.409.833,1.32,1.178-10.704,4.552-20.272-.583-25.526-10.197-.269-.492-1.499-2.553-1.2-2.908,2.34-.434,4.784-1.189,7.143-1.478,3.565-.436,7.164-.338,10.578.855,4.903,1.713,8.938,6.368,10.25,11.356Z"/>
  <path class="cls-4" d="M160.883,107.507c4.289-3.582,9.705-6.152,14.987-7.995-.065-.5-1.234-.232-1.558-.182-3.069.466-6.932,1.933-9.771,3.219-1.665.754-3.218,1.768-4.907,2.46,1.427-3.579,3.266-6.882,6.413-9.198,4.781-3.519,10.675-3.56,16.327-2.671.806.127,5.365.993,5.482,1.521-3.28,7.004-9.303,13.962-17.592,14.36-3.297.158-6.241-.8-9.38-1.513Z"/>
  <path class="cls-9" d="M141.148,91.522l-.998-9.87-.005-6.118c-.5.096-.409.528-.496.875-1.21,4.805-.96,10.19-1.001,15.112-.24.286-1.436-1.033-1.625-1.245-7.942-8.915-4.098-18.644,3.001-26.479,6.506,7.388,10.757,16.526,3.865,25.345-.328.419-2.247,2.909-2.74,2.38Z"/>
  <path class="cls-6" d="M108.671,113.503c-3.653.102-7.347.623-10.74,2.004-.051.47.523.201.798.174,3.342-.33,6.559-.989,9.942-.425-4.671,7.065-13.395,6.102-19.736,1.866,4.912-6.207,13.109-9.655,19.736-3.62Z"/>
  <path class="cls-2" d="M171.375,115.257c3.589-.422,7.166.063,10.741.495.058-.359-.421-.327-.686-.432-3.158-1.252-6.665-1.725-10.054-1.816l3.75-2.366c5.963-2.638,12.14,1.308,15.722,5.963-5.949,4.446-15.069,5.021-19.473-1.843Z"/>
  <path class="cls-15" d="M112.668,120.003c-.844.958-2.051,1.537-3.001,2.368-.425.371-2.878,2.748-2.993,3.004-.049.109-.064.41.122.37.544-.751,6.505-4.857,6.87-4.494-.675,6.931-6.44,9.412-12.739,9.49.981-6.282,4.69-11.669,11.74-10.738Z"/>
  <path class="cls-11" d="M178.87,130.743c-6.035-.081-12.034-2.748-12.49-9.492.307-.322,6.376,3.732,6.87,4.494l.122-.37-5.993-5.372c6.847-.976,10.904,4.539,11.492,10.74Z"/>
  <path class="cls-10" d="M110.667,89.273c-1.562-1.181-3.861-3.767-5.622-4.494-.114-.047-.409-.065-.369.121,1.936,1.488,3.582,3.263,4.99,5.248.008.571-2.349.098-2.756.012-4.93-1.035-6.246-4.941-7.232-9.378,5.406-.121,11.14,2.301,10.989,8.491Z"/>
  <path class="cls-3" d="M180.119,80.779c-.269,5.344-3.936,10.201-9.744,9.491,1.087-1.907,2.738-3.331,4.328-4.788.192-.176.731-.392.295-.704l-5.62,4.495c-.294-6.049,5.487-8.553,10.74-8.494Z"/>
  <path class="cls-12" d="M129.403,77.532c-5.269-1.507-6.581-7.147-4.364-11.743,2.896,1.488,5.52,4.395,5.369,7.859-.059,1.353-.765,2.581-1.005,3.884Z"/>
  <path class="cls-5" d="M155.134,65.791c1.76,4.79.78,10.05-4.49,11.741-2.484-4.817-.2-9.64,4.49-11.741Z"/>
  <path class="cls-8" d="M86.187,105.515c3.875-2.492,8.855-2.721,11.443,1.624-3.616,3.38-8.653,2.082-11.443-1.624Z"/>
  <path class="cls-16" d="M186.798,103.822c1.831-.311,4.596.175,6.145,1.23,1.374.936-.354,1.905-1.356,2.56-3.066,2.004-6.384,1.994-9.17-.473.763-1.439,2.773-3.044,4.381-3.317Z"/>
  <path class="cls-13" d="M122.908,122.499c-2.554-2.235-3.539-5.156-3.639-8.497-.029-.98.497-.929,1.16-.388,1.214.991,1.184,4.586,1.557,6.187.218.939.685,1.773.922,2.698Z"/>
  <path class="cls-19" d="M160.632,113.255c.083,3.283-.724,6.507-3.244,8.744.811-1.553.878-7.95,2.246-8.619.324-.158.654-.146.999-.125Z"/>
</svg>